<?xml version="1.0" encoding="utf-8"?>
<svg version="1.0" xmlns="http://www.w3.org/2000/svg" width="399.000000pt" height="399.000000pt" viewBox="57.325 24.92 289.142 351.97" preserveAspectRatio="xMidYMid meet">
  <g transform="translate(0.000000,399.000000) scale(0.100000,-0.100000)" fill="#FFFFFF" stroke="none">
    <path d="M1993 3658 c-90 -139 -127 -302 -103 -448 32 -191 127 -371 288 -542 98 -104 1066 -949 1095 -956 16 -3 98 101 131 165 43 85 59 173 53 293 -6 150 -58 289 -164 438 -94 132 -111 147 -1195 1075 l-57 48 -48 -73z" style="fill: rgb(0, 0, 0);"/>
    <path d="M847 3393 c-147 -201 -175 -451 -78 -685 47 -112 141 -248 245 -352 50 -51 273 -249 495 -442 508 -438 1117 -966 1371 -1189 107 -93 223 -194 258 -224 l63 -54 44 43 c56 55 110 157 135 256 65 251 -33 532 -267 768 -42 43 -156 146 -252 229 -97 83 -212 183 -256 223 -44 39 -217 189 -385 334 -168 144 -350 301 -405 349 -624 544 -913 791 -924 791 -5 0 -25 -21 -44 -47z" style="fill: rgb(0, 0, 0);"/>
    <path d="M711 2178 c-220 -297 -155 -696 168 -1027 42 -42 251 -228 466 -412 534 -458 595 -509 605 -509 5 0 25 21 45 47 210 275 150 653 -156 987 -60 66 -1063 945 -1089 954 -4 2 -22 -16 -39 -40z" style="fill: rgb(0, 0, 0);"/>
  </g>
</svg>